<?xml version="1.0" encoding="UTF-8" standalone="no"?><!-- Generator: Gravit.io --><svg xmlns="http://www.w3.org/2000/svg" xmlns:xlink="http://www.w3.org/1999/xlink" style="isolation:isolate" viewBox="0 0 2000 1000" width="2000pt" height="1000pt"><defs><clipPath id="_clipPath_sS1kt3ucp1gHBm9zuwu7EG59as88dYz5"><rect width="2000" height="1000"/></clipPath></defs><g clip-path="url(#_clipPath_sS1kt3ucp1gHBm9zuwu7EG59as88dYz5)"><g><path d="M 71.945 30 L 335.305 30 C 343.967 30 351 37.033 351 45.695 L 351 247.555 C 351 256.217 343.967 263.25 335.305 263.25 L 71.945 263.25 C 63.283 263.25 56.25 256.217 56.25 247.555 L 56.25 45.695 C 56.25 37.033 63.283 30 71.945 30 Z" style="stroke:none;fill:#EBEBEB;stroke-miterlimit:10;"/><path d="M 71.945 30 L 335.305 30 C 343.967 30 351 37.033 351 45.695 L 351 247.555 C 351 256.217 343.967 263.25 335.305 263.25 L 71.945 263.25 C 63.283 263.25 56.25 256.217 56.25 247.555 L 56.25 45.695 C 56.25 37.033 63.283 30 71.945 30 Z" style="fill:none;stroke:#000000;stroke-width:6;stroke-linecap:square;stroke-miterlimit:2;"/><clipPath id="_clipPath_WDfD7nrc4691Fv7xPdVFTW9MLfAqIroG"><path d="M 71.945 30 L 335.305 30 C 343.967 30 351 37.033 351 45.695 L 351 247.555 C 351 256.217 343.967 263.25 335.305 263.25 L 71.945 263.25 C 63.283 263.25 56.25 256.217 56.25 247.555 L 56.25 45.695 C 56.25 37.033 63.283 30 71.945 30 Z" style="stroke:none;fill:#EBEBEB;stroke-miterlimit:10;"/><path d="M 71.945 30 L 335.305 30 C 343.967 30 351 37.033 351 45.695 L 351 247.555 C 351 256.217 343.967 263.25 335.305 263.25 L 71.945 263.25 C 63.283 263.25 56.25 256.217 56.25 247.555 L 56.25 45.695 C 56.25 37.033 63.283 30 71.945 30 Z" style="fill:none;stroke:#000000;stroke-width:6;stroke-linecap:square;stroke-miterlimit:2;"/></clipPath><g clip-path="url(#_clipPath_WDfD7nrc4691Fv7xPdVFTW9MLfAqIroG)"><rect x="57.375" y="101.25" width="292.5" height="161.25" transform="matrix(1,0,0,1,0,0)" fill="rgb(235,235,235)"/><clipPath id="_clipPath_AbapUp1hC4F2cWh6ZvZJH5jm32u8s2hg"><rect x="57.375" y="101.25" width="292.5" height="161.25" transform="matrix(1,0,0,1,0,0)" fill="rgb(235,235,235)"/></clipPath><g clip-path="url(#_clipPath_AbapUp1hC4F2cWh6ZvZJH5jm32u8s2hg)"><rect x="57.375" y="180.375" width="292.5" height="3" transform="matrix(1,0,0,1,0,0)" fill="rgb(4,211,97)"/><g clip-path="url(#_clipPath_9YCvMvUuG38Of71PXIR4Drk9akkgKzwf)"><text transform="matrix(1,0,0,1,160.095,152.004)" style="font-family:'Roboto Condensed';font-weight:700;font-size:30px;font-style:normal;fill:#2a3b36;stroke:none;">DADOS</text></g><defs><clipPath id="_clipPath_9YCvMvUuG38Of71PXIR4Drk9akkgKzwf"><rect x="0" y="0" width="289.5" height="78" transform="matrix(1,0,0,1,59.25,102.75)"/></clipPath></defs><g clip-path="url(#_clipPath_A5pY7JZiXISkUJjXsYjX5jSySPVuGLpN)"><text transform="matrix(1,0,0,1,133.748,231.004)" style="font-family:'Roboto Condensed';font-weight:700;font-size:30px;font-style:normal;fill:#2a3b36;stroke:none;">PRÓXIMO *</text></g><defs><clipPath id="_clipPath_A5pY7JZiXISkUJjXsYjX5jSySPVuGLpN"><rect x="0" y="0" width="289.5" height="78" transform="matrix(1,0,0,1,58.875,181.75)"/></clipPath></defs></g><mask id="_mask_3E5isLdKpyzZ8c2317t27IWt5FX4WAQu"><rect x="51.375" y="27" width="304.5" height="75.75" fill="white" stroke="none"/></mask><rect x="51.375" y="27" width="304.5" height="75.75" transform="matrix(1,0,0,1,0,0)" fill="rgb(42,59,54)"/><rect x="51.375" y="27" width="304.5" height="75.75" transform="matrix(1,0,0,1,0,0)" fill="rgb(42,59,54)" mask="url(#_mask_3E5isLdKpyzZ8c2317t27IWt5FX4WAQu)" vector-effect="non-scaling-stroke" stroke-width="6" stroke="rgb(4,211,97)" stroke-linejoin="miter" stroke-linecap="square" stroke-miterlimit="2"/><clipPath id="_clipPath_S8qi4lXpsvYARHon3SpNiZfUZeaLWHtW"><rect x="51.375" y="27" width="304.5" height="75.75" transform="matrix(1,0,0,1,0,0)" fill="rgb(42,59,54)"/><rect x="51.375" y="27" width="304.5" height="75.75" transform="matrix(1,0,0,1,0,0)" fill="rgb(42,59,54)" mask="url(#_mask_3E5isLdKpyzZ8c2317t27IWt5FX4WAQu)" vector-effect="non-scaling-stroke" stroke-width="6" stroke="rgb(4,211,97)" stroke-linejoin="miter" stroke-linecap="square" stroke-miterlimit="2"/></clipPath><g clip-path="url(#_clipPath_S8qi4lXpsvYARHon3SpNiZfUZeaLWHtW)"><g clip-path="url(#_clipPath_8as0SL04ao2qFCIx6Xs5pj6z7DT1oM0Z)"><text transform="matrix(1,0,0,1,115.757,76.838)" style="font-family:'Roboto Condensed';font-weight:700;font-size:35px;font-style:normal;fill:#ffffff;stroke:none;">ESTRUTURA</text></g><defs><clipPath id="_clipPath_8as0SL04ao2qFCIx6Xs5pj6z7DT1oM0Z"><rect x="0" y="0" width="297" height="68.25" transform="matrix(1,0,0,1,55.125,30.75)"/></clipPath></defs></g><rect x="51.375" y="27" width="304.5" height="75.75" transform="matrix(1,0,0,1,0,0)" fill="transparent" mask="url(#_mask_3E5isLdKpyzZ8c2317t27IWt5FX4WAQu)" vector-effect="non-scaling-stroke" stroke-width="6" stroke="rgb(4,211,97)" stroke-linejoin="miter" stroke-linecap="square" stroke-miterlimit="2"/></g></g><g><path d="M 477.945 187.75 L 741.305 187.75 C 749.967 187.75 757 194.783 757 203.445 L 757 405.305 C 757 413.967 749.967 421 741.305 421 L 477.945 421 C 469.283 421 462.25 413.967 462.25 405.305 L 462.25 203.445 C 462.25 194.783 469.283 187.75 477.945 187.75 Z" style="stroke:none;fill:#EBEBEB;stroke-miterlimit:10;"/><path d="M 477.945 187.75 L 741.305 187.75 C 749.967 187.75 757 194.783 757 203.445 L 757 405.305 C 757 413.967 749.967 421 741.305 421 L 477.945 421 C 469.283 421 462.25 413.967 462.25 405.305 L 462.25 203.445 C 462.25 194.783 469.283 187.75 477.945 187.75 Z" style="fill:none;stroke:#000000;stroke-width:6;stroke-linecap:square;stroke-miterlimit:2;"/><clipPath id="_clipPath_F5ZcnFhr2yYSRXHcjOQek3cdXsfN45S5"><path d="M 477.945 187.75 L 741.305 187.75 C 749.967 187.75 757 194.783 757 203.445 L 757 405.305 C 757 413.967 749.967 421 741.305 421 L 477.945 421 C 469.283 421 462.25 413.967 462.25 405.305 L 462.25 203.445 C 462.25 194.783 469.283 187.75 477.945 187.75 Z" style="stroke:none;fill:#EBEBEB;stroke-miterlimit:10;"/><path d="M 477.945 187.75 L 741.305 187.75 C 749.967 187.75 757 194.783 757 203.445 L 757 405.305 C 757 413.967 749.967 421 741.305 421 L 477.945 421 C 469.283 421 462.25 413.967 462.25 405.305 L 462.25 203.445 C 462.25 194.783 469.283 187.75 477.945 187.75 Z" style="fill:none;stroke:#000000;stroke-width:6;stroke-linecap:square;stroke-miterlimit:2;"/></clipPath><g clip-path="url(#_clipPath_F5ZcnFhr2yYSRXHcjOQek3cdXsfN45S5)"><rect x="463.375" y="259" width="292.5" height="161.25" transform="matrix(1,0,0,1,0,0)" fill="rgb(235,235,235)"/><clipPath id="_clipPath_mNyKEsE83iFsYzhgKr3OdcehoFxwu3TK"><rect x="463.375" y="259" width="292.5" height="161.25" transform="matrix(1,0,0,1,0,0)" fill="rgb(235,235,235)"/></clipPath><g clip-path="url(#_clipPath_mNyKEsE83iFsYzhgKr3OdcehoFxwu3TK)"><rect x="463.375" y="338.125" width="292.5" height="3" transform="matrix(1,0,0,1,0,0)" fill="rgb(4,211,97)"/><g clip-path="url(#_clipPath_5KW9JQ2UOvgnrndziQlvsGB9xzt2bQKb)"><text transform="matrix(1,0,0,1,566.095,309.754)" style="font-family:'Roboto Condensed';font-weight:700;font-size:30px;font-style:normal;fill:#2a3b36;stroke:none;">DADOS</text></g><defs><clipPath id="_clipPath_5KW9JQ2UOvgnrndziQlvsGB9xzt2bQKb"><rect x="0" y="0" width="289.5" height="78" transform="matrix(1,0,0,1,465.25,260.5)"/></clipPath></defs><g clip-path="url(#_clipPath_fgHoBVxhz5wpuB2vKr7VCf5wMkL7uDgs)"><text transform="matrix(1,0,0,1,539.748,388.754)" style="font-family:'Roboto Condensed';font-weight:700;font-size:30px;font-style:normal;fill:#2a3b36;stroke:none;">PRÓXIMO *</text></g><defs><clipPath id="_clipPath_fgHoBVxhz5wpuB2vKr7VCf5wMkL7uDgs"><rect x="0" y="0" width="289.5" height="78" transform="matrix(1,0,0,1,464.875,339.5)"/></clipPath></defs></g><mask id="_mask_EsUpUegTvpiSkXQYYTP4kcW0QeJ3Mxeu"><rect x="457.375" y="184.75" width="304.5" height="75.75" fill="white" stroke="none"/></mask><rect x="457.375" y="184.75" width="304.5" height="75.75" transform="matrix(1,0,0,1,0,0)" fill="rgb(42,59,54)"/><rect x="457.375" y="184.75" width="304.5" height="75.75" transform="matrix(1,0,0,1,0,0)" fill="rgb(42,59,54)" mask="url(#_mask_EsUpUegTvpiSkXQYYTP4kcW0QeJ3Mxeu)" vector-effect="non-scaling-stroke" stroke-width="6" stroke="rgb(4,211,97)" stroke-linejoin="miter" stroke-linecap="square" stroke-miterlimit="2"/><clipPath id="_clipPath_2xE3tInoCaLS95zAFPAhVCymoD7aVGks"><rect x="457.375" y="184.75" width="304.5" height="75.75" transform="matrix(1,0,0,1,0,0)" fill="rgb(42,59,54)"/><rect x="457.375" y="184.75" width="304.5" height="75.75" transform="matrix(1,0,0,1,0,0)" fill="rgb(42,59,54)" mask="url(#_mask_EsUpUegTvpiSkXQYYTP4kcW0QeJ3Mxeu)" vector-effect="non-scaling-stroke" stroke-width="6" stroke="rgb(4,211,97)" stroke-linejoin="miter" stroke-linecap="square" stroke-miterlimit="2"/></clipPath><g clip-path="url(#_clipPath_2xE3tInoCaLS95zAFPAhVCymoD7aVGks)"><g clip-path="url(#_clipPath_BlHlzWCaOYCnxmCOcQKfHKBgYM2wDyDc)"><text transform="matrix(1,0,0,1,521.757,234.588)" style="font-family:'Roboto Condensed';font-weight:700;font-size:35px;font-style:normal;fill:#ffffff;stroke:none;">ESTRUTURA</text></g><defs><clipPath id="_clipPath_BlHlzWCaOYCnxmCOcQKfHKBgYM2wDyDc"><rect x="0" y="0" width="297" height="68.25" transform="matrix(1,0,0,1,461.125,188.5)"/></clipPath></defs></g><rect x="457.375" y="184.75" width="304.5" height="75.75" transform="matrix(1,0,0,1,0,0)" fill="transparent" mask="url(#_mask_EsUpUegTvpiSkXQYYTP4kcW0QeJ3Mxeu)" vector-effect="non-scaling-stroke" stroke-width="6" stroke="rgb(4,211,97)" stroke-linejoin="miter" stroke-linecap="square" stroke-miterlimit="2"/></g></g><g><path d="M 883.945 345.5 L 1147.305 345.5 C 1155.967 345.5 1163 352.533 1163 361.195 L 1163 563.055 C 1163 571.717 1155.967 578.75 1147.305 578.75 L 883.945 578.75 C 875.283 578.75 868.25 571.717 868.25 563.055 L 868.25 361.195 C 868.25 352.533 875.283 345.5 883.945 345.5 Z" style="stroke:none;fill:#EBEBEB;stroke-miterlimit:10;"/><path d="M 883.945 345.5 L 1147.305 345.5 C 1155.967 345.5 1163 352.533 1163 361.195 L 1163 563.055 C 1163 571.717 1155.967 578.75 1147.305 578.75 L 883.945 578.75 C 875.283 578.75 868.25 571.717 868.25 563.055 L 868.25 361.195 C 868.25 352.533 875.283 345.5 883.945 345.5 Z" style="fill:none;stroke:#000000;stroke-width:6;stroke-linecap:square;stroke-miterlimit:2;"/><clipPath id="_clipPath_AUJrMQ5sTXIDkfvEwPHkAlz9cZ1G4XBX"><path d="M 883.945 345.5 L 1147.305 345.5 C 1155.967 345.5 1163 352.533 1163 361.195 L 1163 563.055 C 1163 571.717 1155.967 578.75 1147.305 578.75 L 883.945 578.75 C 875.283 578.75 868.25 571.717 868.25 563.055 L 868.25 361.195 C 868.25 352.533 875.283 345.5 883.945 345.5 Z" style="stroke:none;fill:#EBEBEB;stroke-miterlimit:10;"/><path d="M 883.945 345.5 L 1147.305 345.5 C 1155.967 345.5 1163 352.533 1163 361.195 L 1163 563.055 C 1163 571.717 1155.967 578.75 1147.305 578.75 L 883.945 578.75 C 875.283 578.75 868.25 571.717 868.25 563.055 L 868.25 361.195 C 868.25 352.533 875.283 345.5 883.945 345.5 Z" style="fill:none;stroke:#000000;stroke-width:6;stroke-linecap:square;stroke-miterlimit:2;"/></clipPath><g clip-path="url(#_clipPath_AUJrMQ5sTXIDkfvEwPHkAlz9cZ1G4XBX)"><rect x="869.375" y="416.75" width="292.5" height="161.25" transform="matrix(1,0,0,1,0,0)" fill="rgb(235,235,235)"/><clipPath id="_clipPath_tbY8mOKqVrH6D9CNVm0O3FIKYd7473Lf"><rect x="869.375" y="416.75" width="292.5" height="161.25" transform="matrix(1,0,0,1,0,0)" fill="rgb(235,235,235)"/></clipPath><g clip-path="url(#_clipPath_tbY8mOKqVrH6D9CNVm0O3FIKYd7473Lf)"><rect x="869.375" y="495.875" width="292.5" height="3" transform="matrix(1,0,0,1,0,0)" fill="rgb(4,211,97)"/><g clip-path="url(#_clipPath_0HqeTGAp4jruOD3QM4Li14Ut1A32eKiV)"><text transform="matrix(1,0,0,1,972.095,467.504)" style="font-family:'Roboto Condensed';font-weight:700;font-size:30px;font-style:normal;fill:#2a3b36;stroke:none;">DADOS</text></g><defs><clipPath id="_clipPath_0HqeTGAp4jruOD3QM4Li14Ut1A32eKiV"><rect x="0" y="0" width="289.5" height="78" transform="matrix(1,0,0,1,871.25,418.25)"/></clipPath></defs><g clip-path="url(#_clipPath_Xih8IdlPr7CXcfdVBeJ26reCixm6yqpT)"><text transform="matrix(1,0,0,1,945.748,546.504)" style="font-family:'Roboto Condensed';font-weight:700;font-size:30px;font-style:normal;fill:#2a3b36;stroke:none;">PRÓXIMO *</text></g><defs><clipPath id="_clipPath_Xih8IdlPr7CXcfdVBeJ26reCixm6yqpT"><rect x="0" y="0" width="289.5" height="78" transform="matrix(1,0,0,1,870.875,497.25)"/></clipPath></defs></g><mask id="_mask_Kk3yo0wt2THrA0VO54NLG4yqLZ74hhEs"><rect x="863.375" y="342.5" width="304.5" height="75.75" fill="white" stroke="none"/></mask><rect x="863.375" y="342.5" width="304.5" height="75.75" transform="matrix(1,0,0,1,0,0)" fill="rgb(42,59,54)"/><rect x="863.375" y="342.5" width="304.5" height="75.75" transform="matrix(1,0,0,1,0,0)" fill="rgb(42,59,54)" mask="url(#_mask_Kk3yo0wt2THrA0VO54NLG4yqLZ74hhEs)" vector-effect="non-scaling-stroke" stroke-width="6" stroke="rgb(4,211,97)" stroke-linejoin="miter" stroke-linecap="square" stroke-miterlimit="2"/><clipPath id="_clipPath_dPIzqyhQCH9t2vK8293tFiL8pVG6c7Vw"><rect x="863.375" y="342.5" width="304.5" height="75.75" transform="matrix(1,0,0,1,0,0)" fill="rgb(42,59,54)"/><rect x="863.375" y="342.5" width="304.5" height="75.75" transform="matrix(1,0,0,1,0,0)" fill="rgb(42,59,54)" mask="url(#_mask_Kk3yo0wt2THrA0VO54NLG4yqLZ74hhEs)" vector-effect="non-scaling-stroke" stroke-width="6" stroke="rgb(4,211,97)" stroke-linejoin="miter" stroke-linecap="square" stroke-miterlimit="2"/></clipPath><g clip-path="url(#_clipPath_dPIzqyhQCH9t2vK8293tFiL8pVG6c7Vw)"><g clip-path="url(#_clipPath_QtolKP2k0igoOwdP6eY1qXyiUc1wiiAR)"><text transform="matrix(1,0,0,1,927.757,392.338)" style="font-family:'Roboto Condensed';font-weight:700;font-size:35px;font-style:normal;fill:#ffffff;stroke:none;">ESTRUTURA</text></g><defs><clipPath id="_clipPath_QtolKP2k0igoOwdP6eY1qXyiUc1wiiAR"><rect x="0" y="0" width="297" height="68.25" transform="matrix(1,0,0,1,867.125,346.25)"/></clipPath></defs></g><rect x="863.375" y="342.5" width="304.5" height="75.75" transform="matrix(1,0,0,1,0,0)" fill="transparent" mask="url(#_mask_Kk3yo0wt2THrA0VO54NLG4yqLZ74hhEs)" vector-effect="non-scaling-stroke" stroke-width="6" stroke="rgb(4,211,97)" stroke-linejoin="miter" stroke-linecap="square" stroke-miterlimit="2"/></g></g><g><path d="M 1289.945 503.25 L 1553.305 503.25 C 1561.967 503.25 1569 510.283 1569 518.945 L 1569 720.805 C 1569 729.467 1561.967 736.5 1553.305 736.5 L 1289.945 736.5 C 1281.283 736.5 1274.25 729.467 1274.25 720.805 L 1274.25 518.945 C 1274.25 510.283 1281.283 503.25 1289.945 503.25 Z" style="stroke:none;fill:#EBEBEB;stroke-miterlimit:10;"/><path d="M 1289.945 503.25 L 1553.305 503.25 C 1561.967 503.25 1569 510.283 1569 518.945 L 1569 720.805 C 1569 729.467 1561.967 736.5 1553.305 736.5 L 1289.945 736.5 C 1281.283 736.5 1274.25 729.467 1274.25 720.805 L 1274.25 518.945 C 1274.25 510.283 1281.283 503.25 1289.945 503.25 Z" style="fill:none;stroke:#000000;stroke-width:6;stroke-linecap:square;stroke-miterlimit:2;"/><clipPath id="_clipPath_eZHJOa4nrpqHcEIwmd4rVrICWebanQRR"><path d="M 1289.945 503.25 L 1553.305 503.25 C 1561.967 503.25 1569 510.283 1569 518.945 L 1569 720.805 C 1569 729.467 1561.967 736.5 1553.305 736.5 L 1289.945 736.5 C 1281.283 736.5 1274.25 729.467 1274.25 720.805 L 1274.25 518.945 C 1274.25 510.283 1281.283 503.25 1289.945 503.25 Z" style="stroke:none;fill:#EBEBEB;stroke-miterlimit:10;"/><path d="M 1289.945 503.25 L 1553.305 503.25 C 1561.967 503.25 1569 510.283 1569 518.945 L 1569 720.805 C 1569 729.467 1561.967 736.5 1553.305 736.5 L 1289.945 736.5 C 1281.283 736.5 1274.25 729.467 1274.25 720.805 L 1274.25 518.945 C 1274.25 510.283 1281.283 503.25 1289.945 503.25 Z" style="fill:none;stroke:#000000;stroke-width:6;stroke-linecap:square;stroke-miterlimit:2;"/></clipPath><g clip-path="url(#_clipPath_eZHJOa4nrpqHcEIwmd4rVrICWebanQRR)"><rect x="1275.375" y="574.5" width="292.5" height="161.25" transform="matrix(1,0,0,1,0,0)" fill="rgb(235,235,235)"/><clipPath id="_clipPath_Q1GQ1BcOsSxYiIRmq6GEg2kxpoROZo5j"><rect x="1275.375" y="574.5" width="292.5" height="161.25" transform="matrix(1,0,0,1,0,0)" fill="rgb(235,235,235)"/></clipPath><g clip-path="url(#_clipPath_Q1GQ1BcOsSxYiIRmq6GEg2kxpoROZo5j)"><rect x="1275.375" y="653.625" width="292.5" height="3" transform="matrix(1,0,0,1,0,0)" fill="rgb(4,211,97)"/><g clip-path="url(#_clipPath_NYyQPXqsotw8U61VU1k8DoqItRQGR2uL)"><text transform="matrix(1,0,0,1,1378.095,625.254)" style="font-family:'Roboto Condensed';font-weight:700;font-size:30px;font-style:normal;fill:#2a3b36;stroke:none;">DADOS</text></g><defs><clipPath id="_clipPath_NYyQPXqsotw8U61VU1k8DoqItRQGR2uL"><rect x="0" y="0" width="289.5" height="78" transform="matrix(1,0,0,1,1277.25,576)"/></clipPath></defs><g clip-path="url(#_clipPath_o3HtXt2ZIpkb9KQ5hczVowPEHYOyvyFS)"><text transform="matrix(1,0,0,1,1351.748,704.254)" style="font-family:'Roboto Condensed';font-weight:700;font-size:30px;font-style:normal;fill:#2a3b36;stroke:none;">PRÓXIMO *</text></g><defs><clipPath id="_clipPath_o3HtXt2ZIpkb9KQ5hczVowPEHYOyvyFS"><rect x="0" y="0" width="289.5" height="78" transform="matrix(1,0,0,1,1276.875,655)"/></clipPath></defs></g><mask id="_mask_wH5xqjSFGYBjlAmUriwsxBX0TPOhjkNW"><rect x="1269.375" y="500.25" width="304.5" height="75.75" fill="white" stroke="none"/></mask><rect x="1269.375" y="500.25" width="304.5" height="75.75" transform="matrix(1,0,0,1,0,0)" fill="rgb(42,59,54)"/><rect x="1269.375" y="500.25" width="304.5" height="75.75" transform="matrix(1,0,0,1,0,0)" fill="rgb(42,59,54)" mask="url(#_mask_wH5xqjSFGYBjlAmUriwsxBX0TPOhjkNW)" vector-effect="non-scaling-stroke" stroke-width="6" stroke="rgb(4,211,97)" stroke-linejoin="miter" stroke-linecap="square" stroke-miterlimit="2"/><clipPath id="_clipPath_kBr4FaoKJ3CPSjMkIo9QPzpWt4aJMJdh"><rect x="1269.375" y="500.25" width="304.5" height="75.75" transform="matrix(1,0,0,1,0,0)" fill="rgb(42,59,54)"/><rect x="1269.375" y="500.25" width="304.5" height="75.75" transform="matrix(1,0,0,1,0,0)" fill="rgb(42,59,54)" mask="url(#_mask_wH5xqjSFGYBjlAmUriwsxBX0TPOhjkNW)" vector-effect="non-scaling-stroke" stroke-width="6" stroke="rgb(4,211,97)" stroke-linejoin="miter" stroke-linecap="square" stroke-miterlimit="2"/></clipPath><g clip-path="url(#_clipPath_kBr4FaoKJ3CPSjMkIo9QPzpWt4aJMJdh)"><g clip-path="url(#_clipPath_ulDV8vVbOGHr2FPu19OfFf1kXB8qo9qG)"><text transform="matrix(1,0,0,1,1333.757,550.088)" style="font-family:'Roboto Condensed';font-weight:700;font-size:35px;font-style:normal;fill:#ffffff;stroke:none;">ESTRUTURA</text></g><defs><clipPath id="_clipPath_ulDV8vVbOGHr2FPu19OfFf1kXB8qo9qG"><rect x="0" y="0" width="297" height="68.25" transform="matrix(1,0,0,1,1273.125,504)"/></clipPath></defs></g><rect x="1269.375" y="500.25" width="304.5" height="75.75" transform="matrix(1,0,0,1,0,0)" fill="transparent" mask="url(#_mask_wH5xqjSFGYBjlAmUriwsxBX0TPOhjkNW)" vector-effect="non-scaling-stroke" stroke-width="6" stroke="rgb(4,211,97)" stroke-linejoin="miter" stroke-linecap="square" stroke-miterlimit="2"/></g></g><g><path d="M 1695.945 661 L 1959.305 661 C 1967.967 661 1975 668.033 1975 676.695 L 1975 878.555 C 1975 887.217 1967.967 894.25 1959.305 894.25 L 1695.945 894.25 C 1687.283 894.25 1680.25 887.217 1680.25 878.555 L 1680.25 676.695 C 1680.25 668.033 1687.283 661 1695.945 661 Z" style="stroke:none;fill:#EBEBEB;stroke-miterlimit:10;"/><path d="M 1695.945 661 L 1959.305 661 C 1967.967 661 1975 668.033 1975 676.695 L 1975 878.555 C 1975 887.217 1967.967 894.25 1959.305 894.25 L 1695.945 894.25 C 1687.283 894.25 1680.25 887.217 1680.25 878.555 L 1680.25 676.695 C 1680.25 668.033 1687.283 661 1695.945 661 Z" style="fill:none;stroke:#000000;stroke-width:6;stroke-linecap:square;stroke-miterlimit:2;"/><clipPath id="_clipPath_Tul71MKtHHPsCsaNd7wsDCcP6XUsyXJG"><path d="M 1695.945 661 L 1959.305 661 C 1967.967 661 1975 668.033 1975 676.695 L 1975 878.555 C 1975 887.217 1967.967 894.25 1959.305 894.25 L 1695.945 894.25 C 1687.283 894.25 1680.25 887.217 1680.25 878.555 L 1680.25 676.695 C 1680.25 668.033 1687.283 661 1695.945 661 Z" style="stroke:none;fill:#EBEBEB;stroke-miterlimit:10;"/><path d="M 1695.945 661 L 1959.305 661 C 1967.967 661 1975 668.033 1975 676.695 L 1975 878.555 C 1975 887.217 1967.967 894.25 1959.305 894.25 L 1695.945 894.25 C 1687.283 894.25 1680.25 887.217 1680.25 878.555 L 1680.25 676.695 C 1680.25 668.033 1687.283 661 1695.945 661 Z" style="fill:none;stroke:#000000;stroke-width:6;stroke-linecap:square;stroke-miterlimit:2;"/></clipPath><g clip-path="url(#_clipPath_Tul71MKtHHPsCsaNd7wsDCcP6XUsyXJG)"><rect x="1681.375" y="732.25" width="292.5" height="161.25" transform="matrix(1,0,0,1,0,0)" fill="rgb(235,235,235)"/><clipPath id="_clipPath_RygYrECKKhObMjYHZbjxSe7ErPLra8uO"><rect x="1681.375" y="732.25" width="292.5" height="161.25" transform="matrix(1,0,0,1,0,0)" fill="rgb(235,235,235)"/></clipPath><g clip-path="url(#_clipPath_RygYrECKKhObMjYHZbjxSe7ErPLra8uO)"><rect x="1681.375" y="811.375" width="292.5" height="3" transform="matrix(1,0,0,1,0,0)" fill="rgb(4,211,97)"/><g clip-path="url(#_clipPath_qH0ayYxga4sE9JyOXwfJl3mFLkMcjiX9)"><text transform="matrix(1,0,0,1,1784.095,783.004)" style="font-family:'Roboto Condensed';font-weight:700;font-size:30px;font-style:normal;fill:#2a3b36;stroke:none;">DADOS</text></g><defs><clipPath id="_clipPath_qH0ayYxga4sE9JyOXwfJl3mFLkMcjiX9"><rect x="0" y="0" width="289.5" height="78" transform="matrix(1,0,0,1,1683.25,733.75)"/></clipPath></defs><g clip-path="url(#_clipPath_LzgWlbHiXXPsx99OrNwDIjKJ9rqVRNNG)"><text transform="matrix(1,0,0,1,1794.516,862.004)" style="font-family:'Roboto Condensed';font-weight:700;font-size:30px;font-style:normal;fill:#2a3b36;stroke:none;">NULL</text></g><defs><clipPath id="_clipPath_LzgWlbHiXXPsx99OrNwDIjKJ9rqVRNNG"><rect x="0" y="0" width="289.5" height="78" transform="matrix(1,0,0,1,1682.875,812.75)"/></clipPath></defs></g><mask id="_mask_gAGEPgBN611j4O5VQRIj4aYsNp3vvg0F"><rect x="1675.375" y="658" width="304.5" height="75.75" fill="white" stroke="none"/></mask><rect x="1675.375" y="658" width="304.5" height="75.75" transform="matrix(1,0,0,1,0,0)" fill="rgb(42,59,54)"/><rect x="1675.375" y="658" width="304.5" height="75.75" transform="matrix(1,0,0,1,0,0)" fill="rgb(42,59,54)" mask="url(#_mask_gAGEPgBN611j4O5VQRIj4aYsNp3vvg0F)" vector-effect="non-scaling-stroke" stroke-width="6" stroke="rgb(4,211,97)" stroke-linejoin="miter" stroke-linecap="square" stroke-miterlimit="2"/><clipPath id="_clipPath_9jkFNlDIBBJdOaURbt9S0ZiWLEUKtwoj"><rect x="1675.375" y="658" width="304.5" height="75.75" transform="matrix(1,0,0,1,0,0)" fill="rgb(42,59,54)"/><rect x="1675.375" y="658" width="304.5" height="75.75" transform="matrix(1,0,0,1,0,0)" fill="rgb(42,59,54)" mask="url(#_mask_gAGEPgBN611j4O5VQRIj4aYsNp3vvg0F)" vector-effect="non-scaling-stroke" stroke-width="6" stroke="rgb(4,211,97)" stroke-linejoin="miter" stroke-linecap="square" stroke-miterlimit="2"/></clipPath><g clip-path="url(#_clipPath_9jkFNlDIBBJdOaURbt9S0ZiWLEUKtwoj)"><g clip-path="url(#_clipPath_8NcwyOlCTTV2ozpdFgxrOwgfEfSJmvlH)"><text transform="matrix(1,0,0,1,1739.757,707.838)" style="font-family:'Roboto Condensed';font-weight:700;font-size:35px;font-style:normal;fill:#ffffff;stroke:none;">ESTRUTURA</text></g><defs><clipPath id="_clipPath_8NcwyOlCTTV2ozpdFgxrOwgfEfSJmvlH"><rect x="0" y="0" width="297" height="68.25" transform="matrix(1,0,0,1,1679.125,661.75)"/></clipPath></defs></g><rect x="1675.375" y="658" width="304.5" height="75.75" transform="matrix(1,0,0,1,0,0)" fill="transparent" mask="url(#_mask_gAGEPgBN611j4O5VQRIj4aYsNp3vvg0F)" vector-effect="non-scaling-stroke" stroke-width="6" stroke="rgb(4,211,97)" stroke-linejoin="miter" stroke-linecap="square" stroke-miterlimit="2"/></g></g><mask id="_mask_2jM4sDv3o00tDeOUS4lGRzAS5gmUEO68"><path d=" M 418.649 213.866 L 277.333 213.866 L 277.333 221.821 L 418.651 221.821 L 418.658 242.214 L 439.759 230.022 L 460.861 217.83 L 439.752 205.652 L 418.642 193.473 L 418.649 213.866 Z " fill-rule="evenodd" fill="white" stroke="none"/></mask><path d=" M 418.649 213.866 L 277.333 213.866 L 277.333 221.821 L 418.651 221.821 L 418.658 242.214 L 439.759 230.022 L 460.861 217.83 L 439.752 205.652 L 418.642 193.473 L 418.649 213.866 Z " fill-rule="evenodd" fill="rgb(42,59,54)"/><path d=" M 418.649 213.866 L 277.333 213.866 L 277.333 221.821 L 418.651 221.821 L 418.658 242.214 L 439.759 230.022 L 460.861 217.83 L 439.752 205.652 L 418.642 193.473 L 418.649 213.866 Z " fill-rule="evenodd" fill="rgb(42,59,54)" mask="url(#_mask_2jM4sDv3o00tDeOUS4lGRzAS5gmUEO68)" vector-effect="non-scaling-stroke" stroke-width="4" stroke="rgb(4,211,97)" stroke-linejoin="miter" stroke-linecap="square" stroke-miterlimit="3"/><mask id="_mask_8v1xflc24qlUyzbYSoolTdHSQyNaNUzT"><path d=" M 824.376 371.442 L 683.061 371.442 L 683.061 379.397 L 824.379 379.397 L 824.385 399.79 L 845.487 387.598 L 866.588 375.406 L 845.479 363.227 L 824.369 351.049 L 824.376 371.442 Z " fill-rule="evenodd" fill="white" stroke="none"/></mask><path d=" M 824.376 371.442 L 683.061 371.442 L 683.061 379.397 L 824.379 379.397 L 824.385 399.79 L 845.487 387.598 L 866.588 375.406 L 845.479 363.227 L 824.369 351.049 L 824.376 371.442 Z " fill-rule="evenodd" fill="rgb(42,59,54)"/><path d=" M 824.376 371.442 L 683.061 371.442 L 683.061 379.397 L 824.379 379.397 L 824.385 399.79 L 845.487 387.598 L 866.588 375.406 L 845.479 363.227 L 824.369 351.049 L 824.376 371.442 Z " fill-rule="evenodd" fill="rgb(42,59,54)" mask="url(#_mask_8v1xflc24qlUyzbYSoolTdHSQyNaNUzT)" vector-effect="non-scaling-stroke" stroke-width="4" stroke="rgb(4,211,97)" stroke-linejoin="miter" stroke-linecap="square" stroke-miterlimit="3"/><mask id="_mask_KOWEihIpCUL4lcEZEB5GPHuOTeRelKHe"><path d=" M 1230.103 529.018 L 1088.788 529.018 L 1088.788 536.973 L 1230.106 536.973 L 1230.112 557.366 L 1251.214 545.174 L 1272.315 532.982 L 1251.206 520.803 L 1230.097 508.625 L 1230.103 529.018 Z " fill-rule="evenodd" fill="white" stroke="none"/></mask><path d=" M 1230.103 529.018 L 1088.788 529.018 L 1088.788 536.973 L 1230.106 536.973 L 1230.112 557.366 L 1251.214 545.174 L 1272.315 532.982 L 1251.206 520.803 L 1230.097 508.625 L 1230.103 529.018 Z " fill-rule="evenodd" fill="rgb(42,59,54)"/><path d=" M 1230.103 529.018 L 1088.788 529.018 L 1088.788 536.973 L 1230.106 536.973 L 1230.112 557.366 L 1251.214 545.174 L 1272.315 532.982 L 1251.206 520.803 L 1230.097 508.625 L 1230.103 529.018 Z " fill-rule="evenodd" fill="rgb(42,59,54)" mask="url(#_mask_KOWEihIpCUL4lcEZEB5GPHuOTeRelKHe)" vector-effect="non-scaling-stroke" stroke-width="4" stroke="rgb(4,211,97)" stroke-linejoin="miter" stroke-linecap="square" stroke-miterlimit="3"/><mask id="_mask_bTjFOCRBNiJQ8XKRklrmYZVgRQHcQ3qm"><path d=" M 1635.831 686.594 L 1494.515 686.594 L 1494.515 694.548 L 1635.833 694.548 L 1635.84 714.942 L 1656.941 702.75 L 1678.043 690.557 L 1656.933 678.379 L 1635.824 666.201 L 1635.831 686.594 Z " fill-rule="evenodd" fill="white" stroke="none"/></mask><path d=" M 1635.831 686.594 L 1494.515 686.594 L 1494.515 694.548 L 1635.833 694.548 L 1635.84 714.942 L 1656.941 702.75 L 1678.043 690.557 L 1656.933 678.379 L 1635.824 666.201 L 1635.831 686.594 Z " fill-rule="evenodd" fill="rgb(42,59,54)"/><path d=" M 1635.831 686.594 L 1494.515 686.594 L 1494.515 694.548 L 1635.833 694.548 L 1635.84 714.942 L 1656.941 702.75 L 1678.043 690.557 L 1656.933 678.379 L 1635.824 666.201 L 1635.831 686.594 Z " fill-rule="evenodd" fill="rgb(42,59,54)" mask="url(#_mask_bTjFOCRBNiJQ8XKRklrmYZVgRQHcQ3qm)" vector-effect="non-scaling-stroke" stroke-width="4" stroke="rgb(4,211,97)" stroke-linejoin="miter" stroke-linecap="square" stroke-miterlimit="3"/></g></svg>